<mxfile host="app.diagrams.net" modified="2023-05-11T08:15:37.679Z" agent="Mozilla/5.0 (Windows NT 10.0; Win64; x64) AppleWebKit/537.36 (KHTML, like Gecko) Chrome/112.0.0.0 Safari/537.36" version="21.2.9" etag="xbRKCFuW6QN_ltBCgoMm" type="github">
  <diagram name="第 1 页" id="_OkXzLfqo5BSDPTEwWD_">
    <mxGraphModel>
      <root>
        <mxCell id="0" />
        <mxCell id="1" parent="0" />
      </root>
    </mxGraphModel>
  </diagram>
</mxfile>
